<svg width="83" height="24" viewBox="0 0 83 24" fill="none" xmlns="http://www.w3.org/2000/svg">
<g id="sokuri">
<mask id="path-1-outside-1_224_2171" maskUnits="userSpaceOnUse" x="0" y="0" width="83" height="24" fill="black">
<rect fill="white" width="83" height="24"/>
<path d="M14.1348 17.8193C14.1348 18.9125 13.8775 19.8509 13.363 20.6346C12.8484 21.4085 12.086 21.9987 11.0756 22.405C10.0746 22.8017 8.85373 23 7.41302 23C6.0378 23 4.85904 22.7823 3.87674 22.347C2.89444 21.9116 2.16941 21.3698 1.70164 20.7216C1.23388 20.0638 1 19.4059 1 18.748C1 18.3127 1.14968 17.9402 1.44905 17.6306C1.74842 17.321 2.12731 17.1662 2.58571 17.1662C2.98799 17.1662 3.29671 17.2678 3.51188 17.471C3.72706 17.6741 3.93287 17.9595 4.12933 18.3272C4.52225 19.0334 4.99001 19.5607 5.53262 19.909C6.08458 20.2573 6.833 20.4314 7.77788 20.4314C8.54501 20.4314 9.17181 20.2573 9.65828 19.909C10.1541 19.551 10.402 19.1447 10.402 18.69C10.402 17.9934 10.1448 17.4855 9.63022 17.1662C9.12503 16.847 8.28774 16.5422 7.11833 16.252C5.79924 15.9134 4.72339 15.5602 3.89077 15.1926C3.06751 14.8153 2.40797 14.3219 1.91214 13.7124C1.41631 13.1029 1.16839 12.3531 1.16839 11.4631C1.16839 10.6697 1.3976 9.91996 1.85601 9.21372C2.31441 8.50748 2.98799 7.94635 3.87674 7.53034C4.77484 7.10466 5.85537 6.89182 7.11833 6.89182C8.10999 6.89182 8.99874 6.99824 9.78458 7.21108C10.5798 7.42392 11.2393 7.70932 11.7632 8.06728C12.2965 8.42524 12.6987 8.8219 12.97 9.25726C13.2507 9.69261 13.391 10.1183 13.391 10.5343C13.391 10.989 13.2413 11.3615 12.942 11.6517C12.652 11.942 12.2357 12.0871 11.6931 12.0871C11.3001 12.0871 10.9633 11.971 10.6827 11.7388C10.4114 11.5066 10.098 11.1583 9.74248 10.6939C9.45247 10.3069 9.111 9.99736 8.71808 9.76517C8.32516 9.53298 7.79191 9.41689 7.11833 9.41689C6.42604 9.41689 5.8507 9.57168 5.39229 9.88127C4.93388 10.1812 4.70468 10.5585 4.70468 11.0132C4.70468 11.4292 4.87307 11.7726 5.20986 12.0435C5.54665 12.3047 6.00038 12.5224 6.57105 12.6966C7.14172 12.8707 7.92756 13.0836 8.92857 13.3351C10.1167 13.635 11.085 13.993 11.8334 14.409C12.5912 14.825 13.1618 15.3184 13.5454 15.8892C13.9383 16.4503 14.1348 17.0937 14.1348 17.8193Z"/>
<path d="M31.2581 14.9459C31.2581 16.1262 31.0804 17.2146 30.7249 18.2111C30.3694 19.2076 29.8548 20.0638 29.1813 20.7797C28.5077 21.4956 27.7031 22.0471 26.7676 22.434C25.8321 22.8113 24.7796 23 23.6102 23C22.4502 23 21.4071 22.8065 20.4809 22.4195C19.5547 22.0325 18.7502 21.4811 18.0672 20.7652C17.3937 20.0396 16.8791 19.1882 16.5236 18.2111C16.1775 17.2243 16.0044 16.1359 16.0044 14.9459C16.0044 13.7463 16.1821 12.6482 16.5376 11.6517C16.8931 10.6552 17.403 9.80387 18.0672 9.09762C18.7315 8.39138 19.536 7.8496 20.4809 7.4723C21.4258 7.08531 22.4689 6.89182 23.6102 6.89182C24.7703 6.89182 25.8227 7.08531 26.7676 7.4723C27.7125 7.85928 28.5217 8.41073 29.1953 9.12665C29.8689 9.84257 30.3787 10.6939 30.7249 11.6807C31.0804 12.6675 31.2581 13.7559 31.2581 14.9459ZM27.4131 14.9459C27.4131 13.3303 27.067 12.0726 26.3747 11.1728C25.6918 10.2731 24.7703 9.82322 23.6102 9.82322C22.8618 9.82322 22.2023 10.0264 21.6316 10.4327C21.0609 10.8294 20.6212 11.4195 20.3125 12.2032C20.0038 12.9868 19.8494 13.9011 19.8494 14.9459C19.8494 15.9811 19.9991 16.8857 20.2985 17.6596C20.6072 18.4336 21.0422 19.0286 21.6035 19.4446C22.1742 19.8509 22.8431 20.0541 23.6102 20.0541C24.7703 20.0541 25.6918 19.6042 26.3747 18.7045C27.067 17.7951 27.4131 16.5422 27.4131 14.9459Z"/>
<path d="M42.797 21.186L39.4151 15.4393L37.3382 17.471V20.6201C37.3382 21.3843 37.1417 21.9745 36.7488 22.3905C36.3652 22.7968 35.9209 23 35.4157 23C34.8263 23 34.3632 22.7968 34.0264 22.3905C33.6896 21.9842 33.5212 21.3843 33.5212 20.591V3.69921C33.5212 2.81882 33.685 2.15128 34.0124 1.69657C34.3398 1.23219 34.8076 1 35.4157 1C36.0051 1 36.4728 1.208 36.819 1.62401C37.1651 2.04002 37.3382 2.65435 37.3382 3.46702V13.0739L41.6463 8.40105C42.1795 7.82058 42.5865 7.42392 42.8671 7.21108C43.1478 6.99824 43.4893 6.89182 43.8915 6.89182C44.3687 6.89182 44.7663 7.05145 45.0843 7.37071C45.4024 7.6803 45.5615 8.07212 45.5615 8.54617C45.5615 9.12665 45.0422 9.90062 44.0038 10.8681L41.969 12.7982L45.8982 19.1834C46.1883 19.6574 46.3941 20.0202 46.5157 20.2718C46.6467 20.5136 46.7121 20.7458 46.7121 20.9683C46.7121 21.5972 46.5438 22.0954 46.207 22.4631C45.8795 22.821 45.4445 23 44.9019 23C44.4341 23 44.074 22.8694 43.8214 22.6082C43.5688 22.347 43.2273 21.8729 42.797 21.186Z"/>
<path d="M58.7764 20.7652V20.2573C58.318 20.8571 57.8362 21.3602 57.331 21.7665C56.8258 22.1728 56.2738 22.4727 55.6751 22.6662C55.0764 22.8694 54.3934 22.971 53.6263 22.971C52.7001 22.971 51.8675 22.7726 51.1285 22.376C50.3988 21.9793 49.8328 21.4327 49.4305 20.7361C48.9534 19.8945 48.7148 18.6851 48.7148 17.1082V9.25726C48.7148 8.46394 48.8879 7.87379 49.234 7.48681C49.5802 7.09015 50.0386 6.89182 50.6092 6.89182C51.1893 6.89182 51.657 7.09015 52.0125 7.48681C52.368 7.88346 52.5458 8.47361 52.5458 9.25726V15.5989C52.5458 16.518 52.6206 17.292 52.7703 17.9208C52.92 18.54 53.1866 19.0286 53.5702 19.3865C53.9631 19.7348 54.4917 19.909 55.1559 19.909C55.8014 19.909 56.4095 19.7106 56.9802 19.314C57.5508 18.9173 57.9671 18.3997 58.2291 17.7612C58.4443 17.2001 58.5518 15.9714 58.5518 14.0752V9.25726C58.5518 8.47361 58.7296 7.88346 59.0851 7.48681C59.4406 7.09015 59.9037 6.89182 60.4744 6.89182C61.045 6.89182 61.5034 7.09015 61.8496 7.48681C62.1957 7.87379 62.3688 8.46394 62.3688 9.25726V20.7361C62.3688 21.4908 62.2004 22.0567 61.8636 22.434C61.5362 22.8113 61.1105 23 60.5866 23C60.0627 23 59.6277 22.8065 59.2816 22.4195C58.9448 22.0229 58.7764 21.4714 58.7764 20.7652Z"/>
<path d="M69.5428 17.2823V20.591C69.5428 21.394 69.3604 21.9987 68.9956 22.405C68.6307 22.8017 68.1676 23 67.6063 23C67.0543 23 66.6006 22.7968 66.2451 22.3905C65.8896 21.9842 65.7119 21.3843 65.7119 20.591V9.56201C65.7119 7.78188 66.334 6.89182 67.5782 6.89182C68.2144 6.89182 68.6728 7.09982 68.9535 7.51583C69.2341 7.93184 69.3885 8.54617 69.4165 9.35884C69.875 8.54617 70.3427 7.93184 70.8198 7.51583C71.3063 7.09982 71.9518 6.89182 72.7564 6.89182C73.5609 6.89182 74.3421 7.09982 75.0999 7.51583C75.8576 7.93184 76.2365 8.48329 76.2365 9.17018C76.2365 9.65391 76.0728 10.0554 75.7454 10.3747C75.4273 10.6843 75.0812 10.839 74.7069 10.839C74.5666 10.839 74.2252 10.752 73.6825 10.5778C73.1493 10.394 72.6769 10.3021 72.2652 10.3021C71.7039 10.3021 71.2455 10.4569 70.89 10.7665C70.5345 11.0664 70.2585 11.5163 70.0621 12.1161C69.8656 12.7159 69.73 13.4318 69.6551 14.2639C69.5803 15.0862 69.5428 16.0923 69.5428 17.2823Z"/>
<path d="M82 13.5V20.591C82 21.3843 81.8176 21.9842 81.4527 22.3905C81.0879 22.7968 80.6248 23 80.0635 23C79.5021 23 79.0437 22.792 78.6882 22.376C78.3421 21.96 78.169 21.365 78.169 20.591V13.6161C78.169 12.8325 78.3421 12.2423 78.6882 11.8456C79.0437 11.449 79.5021 11.2507 80.0635 11.2507C80.6248 11.2507 81.0879 11.449 81.4527 11.8456C81.8176 12.2423 82 12.7938 82 13.5ZM80.1056 9.20966C79.5723 9.20966 79.1139 9.04035 78.7303 8.70174C78.3561 8.36313 78.169 7.88424 78.169 7.26507C78.169 6.70394 78.3608 6.2444 78.7444 5.88644C79.1373 5.5188 79.591 5.33499 80.1056 5.33499C80.6014 5.33499 81.0411 5.49945 81.4247 5.82839C81.8082 6.15733 82 6.63622 82 7.26507C82 7.87456 81.8129 8.35346 81.4387 8.70174C81.0645 9.04035 80.6201 9.20966 80.1056 9.20966Z"/>
</mask>
<path d="M14.1348 17.8193C14.1348 18.9125 13.8775 19.8509 13.363 20.6346C12.8484 21.4085 12.086 21.9987 11.0756 22.405C10.0746 22.8017 8.85373 23 7.41302 23C6.0378 23 4.85904 22.7823 3.87674 22.347C2.89444 21.9116 2.16941 21.3698 1.70164 20.7216C1.23388 20.0638 1 19.4059 1 18.748C1 18.3127 1.14968 17.9402 1.44905 17.6306C1.74842 17.321 2.12731 17.1662 2.58571 17.1662C2.98799 17.1662 3.29671 17.2678 3.51188 17.471C3.72706 17.6741 3.93287 17.9595 4.12933 18.3272C4.52225 19.0334 4.99001 19.5607 5.53262 19.909C6.08458 20.2573 6.833 20.4314 7.77788 20.4314C8.54501 20.4314 9.17181 20.2573 9.65828 19.909C10.1541 19.551 10.402 19.1447 10.402 18.69C10.402 17.9934 10.1448 17.4855 9.63022 17.1662C9.12503 16.847 8.28774 16.5422 7.11833 16.252C5.79924 15.9134 4.72339 15.5602 3.89077 15.1926C3.06751 14.8153 2.40797 14.3219 1.91214 13.7124C1.41631 13.1029 1.16839 12.3531 1.16839 11.4631C1.16839 10.6697 1.3976 9.91996 1.85601 9.21372C2.31441 8.50748 2.98799 7.94635 3.87674 7.53034C4.77484 7.10466 5.85537 6.89182 7.11833 6.89182C8.10999 6.89182 8.99874 6.99824 9.78458 7.21108C10.5798 7.42392 11.2393 7.70932 11.7632 8.06728C12.2965 8.42524 12.6987 8.8219 12.97 9.25726C13.2507 9.69261 13.391 10.1183 13.391 10.5343C13.391 10.989 13.2413 11.3615 12.942 11.6517C12.652 11.942 12.2357 12.0871 11.6931 12.0871C11.3001 12.0871 10.9633 11.971 10.6827 11.7388C10.4114 11.5066 10.098 11.1583 9.74248 10.6939C9.45247 10.3069 9.111 9.99736 8.71808 9.76517C8.32516 9.53298 7.79191 9.41689 7.11833 9.41689C6.42604 9.41689 5.8507 9.57168 5.39229 9.88127C4.93388 10.1812 4.70468 10.5585 4.70468 11.0132C4.70468 11.4292 4.87307 11.7726 5.20986 12.0435C5.54665 12.3047 6.00038 12.5224 6.57105 12.6966C7.14172 12.8707 7.92756 13.0836 8.92857 13.3351C10.1167 13.635 11.085 13.993 11.8334 14.409C12.5912 14.825 13.1618 15.3184 13.5454 15.8892C13.9383 16.4503 14.1348 17.0937 14.1348 17.8193Z" fill="#2068E1"/>
<path d="M31.2581 14.9459C31.2581 16.1262 31.0804 17.2146 30.7249 18.2111C30.3694 19.2076 29.8548 20.0638 29.1813 20.7797C28.5077 21.4956 27.7031 22.0471 26.7676 22.434C25.8321 22.8113 24.7796 23 23.6102 23C22.4502 23 21.4071 22.8065 20.4809 22.4195C19.5547 22.0325 18.7502 21.4811 18.0672 20.7652C17.3937 20.0396 16.8791 19.1882 16.5236 18.2111C16.1775 17.2243 16.0044 16.1359 16.0044 14.9459C16.0044 13.7463 16.1821 12.6482 16.5376 11.6517C16.8931 10.6552 17.403 9.80387 18.0672 9.09762C18.7315 8.39138 19.536 7.8496 20.4809 7.4723C21.4258 7.08531 22.4689 6.89182 23.6102 6.89182C24.7703 6.89182 25.8227 7.08531 26.7676 7.4723C27.7125 7.85928 28.5217 8.41073 29.1953 9.12665C29.8689 9.84257 30.3787 10.6939 30.7249 11.6807C31.0804 12.6675 31.2581 13.7559 31.2581 14.9459ZM27.4131 14.9459C27.4131 13.3303 27.067 12.0726 26.3747 11.1728C25.6918 10.2731 24.7703 9.82322 23.6102 9.82322C22.8618 9.82322 22.2023 10.0264 21.6316 10.4327C21.0609 10.8294 20.6212 11.4195 20.3125 12.2032C20.0038 12.9868 19.8494 13.9011 19.8494 14.9459C19.8494 15.9811 19.9991 16.8857 20.2985 17.6596C20.6072 18.4336 21.0422 19.0286 21.6035 19.4446C22.1742 19.8509 22.8431 20.0541 23.6102 20.0541C24.7703 20.0541 25.6918 19.6042 26.3747 18.7045C27.067 17.7951 27.4131 16.5422 27.4131 14.9459Z" fill="#2068E1"/>
<path d="M42.797 21.186L39.4151 15.4393L37.3382 17.471V20.6201C37.3382 21.3843 37.1417 21.9745 36.7488 22.3905C36.3652 22.7968 35.9209 23 35.4157 23C34.8263 23 34.3632 22.7968 34.0264 22.3905C33.6896 21.9842 33.5212 21.3843 33.5212 20.591V3.69921C33.5212 2.81882 33.685 2.15128 34.0124 1.69657C34.3398 1.23219 34.8076 1 35.4157 1C36.0051 1 36.4728 1.208 36.819 1.62401C37.1651 2.04002 37.3382 2.65435 37.3382 3.46702V13.0739L41.6463 8.40105C42.1795 7.82058 42.5865 7.42392 42.8671 7.21108C43.1478 6.99824 43.4893 6.89182 43.8915 6.89182C44.3687 6.89182 44.7663 7.05145 45.0843 7.37071C45.4024 7.6803 45.5615 8.07212 45.5615 8.54617C45.5615 9.12665 45.0422 9.90062 44.0038 10.8681L41.969 12.7982L45.8982 19.1834C46.1883 19.6574 46.3941 20.0202 46.5157 20.2718C46.6467 20.5136 46.7121 20.7458 46.7121 20.9683C46.7121 21.5972 46.5438 22.0954 46.207 22.4631C45.8795 22.821 45.4445 23 44.9019 23C44.4341 23 44.074 22.8694 43.8214 22.6082C43.5688 22.347 43.2273 21.8729 42.797 21.186Z" fill="#2068E1"/>
<path d="M58.7764 20.7652V20.2573C58.318 20.8571 57.8362 21.3602 57.331 21.7665C56.8258 22.1728 56.2738 22.4727 55.6751 22.6662C55.0764 22.8694 54.3934 22.971 53.6263 22.971C52.7001 22.971 51.8675 22.7726 51.1285 22.376C50.3988 21.9793 49.8328 21.4327 49.4305 20.7361C48.9534 19.8945 48.7148 18.6851 48.7148 17.1082V9.25726C48.7148 8.46394 48.8879 7.87379 49.234 7.48681C49.5802 7.09015 50.0386 6.89182 50.6092 6.89182C51.1893 6.89182 51.657 7.09015 52.0125 7.48681C52.368 7.88346 52.5458 8.47361 52.5458 9.25726V15.5989C52.5458 16.518 52.6206 17.292 52.7703 17.9208C52.92 18.54 53.1866 19.0286 53.5702 19.3865C53.9631 19.7348 54.4917 19.909 55.1559 19.909C55.8014 19.909 56.4095 19.7106 56.9802 19.314C57.5508 18.9173 57.9671 18.3997 58.2291 17.7612C58.4443 17.2001 58.5518 15.9714 58.5518 14.0752V9.25726C58.5518 8.47361 58.7296 7.88346 59.0851 7.48681C59.4406 7.09015 59.9037 6.89182 60.4744 6.89182C61.045 6.89182 61.5034 7.09015 61.8496 7.48681C62.1957 7.87379 62.3688 8.46394 62.3688 9.25726V20.7361C62.3688 21.4908 62.2004 22.0567 61.8636 22.434C61.5362 22.8113 61.1105 23 60.5866 23C60.0627 23 59.6277 22.8065 59.2816 22.4195C58.9448 22.0229 58.7764 21.4714 58.7764 20.7652Z" fill="#2068E1"/>
<path d="M69.5428 17.2823V20.591C69.5428 21.394 69.3604 21.9987 68.9956 22.405C68.6307 22.8017 68.1676 23 67.6063 23C67.0543 23 66.6006 22.7968 66.2451 22.3905C65.8896 21.9842 65.7119 21.3843 65.7119 20.591V9.56201C65.7119 7.78188 66.334 6.89182 67.5782 6.89182C68.2144 6.89182 68.6728 7.09982 68.9535 7.51583C69.2341 7.93184 69.3885 8.54617 69.4165 9.35884C69.875 8.54617 70.3427 7.93184 70.8198 7.51583C71.3063 7.09982 71.9518 6.89182 72.7564 6.89182C73.5609 6.89182 74.3421 7.09982 75.0999 7.51583C75.8576 7.93184 76.2365 8.48329 76.2365 9.17018C76.2365 9.65391 76.0728 10.0554 75.7454 10.3747C75.4273 10.6843 75.0812 10.839 74.7069 10.839C74.5666 10.839 74.2252 10.752 73.6825 10.5778C73.1493 10.394 72.6769 10.3021 72.2652 10.3021C71.7039 10.3021 71.2455 10.4569 70.89 10.7665C70.5345 11.0664 70.2585 11.5163 70.0621 12.1161C69.8656 12.7159 69.73 13.4318 69.6551 14.2639C69.5803 15.0862 69.5428 16.0923 69.5428 17.2823Z" fill="#2068E1"/>
<path d="M82 13.5V20.591C82 21.3843 81.8176 21.9842 81.4527 22.3905C81.0879 22.7968 80.6248 23 80.0635 23C79.5021 23 79.0437 22.792 78.6882 22.376C78.3421 21.96 78.169 21.365 78.169 20.591V13.6161C78.169 12.8325 78.3421 12.2423 78.6882 11.8456C79.0437 11.449 79.5021 11.2507 80.0635 11.2507C80.6248 11.2507 81.0879 11.449 81.4527 11.8456C81.8176 12.2423 82 12.7938 82 13.5ZM80.1056 9.20966C79.5723 9.20966 79.1139 9.04035 78.7303 8.70174C78.3561 8.36313 78.169 7.88424 78.169 7.26507C78.169 6.70394 78.3608 6.2444 78.7444 5.88644C79.1373 5.5188 79.591 5.33499 80.1056 5.33499C80.6014 5.33499 81.0411 5.49945 81.4247 5.82839C81.8082 6.15733 82 6.63622 82 7.26507C82 7.87456 81.8129 8.35346 81.4387 8.70174C81.0645 9.04035 80.6201 9.20966 80.1056 9.20966Z" fill="#2068E1"/>
<path d="M14.1348 17.8193C14.1348 18.9125 13.8775 19.8509 13.363 20.6346C12.8484 21.4085 12.086 21.9987 11.0756 22.405C10.0746 22.8017 8.85373 23 7.41302 23C6.0378 23 4.85904 22.7823 3.87674 22.347C2.89444 21.9116 2.16941 21.3698 1.70164 20.7216C1.23388 20.0638 1 19.4059 1 18.748C1 18.3127 1.14968 17.9402 1.44905 17.6306C1.74842 17.321 2.12731 17.1662 2.58571 17.1662C2.98799 17.1662 3.29671 17.2678 3.51188 17.471C3.72706 17.6741 3.93287 17.9595 4.12933 18.3272C4.52225 19.0334 4.99001 19.5607 5.53262 19.909C6.08458 20.2573 6.833 20.4314 7.77788 20.4314C8.54501 20.4314 9.17181 20.2573 9.65828 19.909C10.1541 19.551 10.402 19.1447 10.402 18.69C10.402 17.9934 10.1448 17.4855 9.63022 17.1662C9.12503 16.847 8.28774 16.5422 7.11833 16.252C5.79924 15.9134 4.72339 15.5602 3.89077 15.1926C3.06751 14.8153 2.40797 14.3219 1.91214 13.7124C1.41631 13.1029 1.16839 12.3531 1.16839 11.4631C1.16839 10.6697 1.3976 9.91996 1.85601 9.21372C2.31441 8.50748 2.98799 7.94635 3.87674 7.53034C4.77484 7.10466 5.85537 6.89182 7.11833 6.89182C8.10999 6.89182 8.99874 6.99824 9.78458 7.21108C10.5798 7.42392 11.2393 7.70932 11.7632 8.06728C12.2965 8.42524 12.6987 8.8219 12.97 9.25726C13.2507 9.69261 13.391 10.1183 13.391 10.5343C13.391 10.989 13.2413 11.3615 12.942 11.6517C12.652 11.942 12.2357 12.0871 11.6931 12.0871C11.3001 12.0871 10.9633 11.971 10.6827 11.7388C10.4114 11.5066 10.098 11.1583 9.74248 10.6939C9.45247 10.3069 9.111 9.99736 8.71808 9.76517C8.32516 9.53298 7.79191 9.41689 7.11833 9.41689C6.42604 9.41689 5.8507 9.57168 5.39229 9.88127C4.93388 10.1812 4.70468 10.5585 4.70468 11.0132C4.70468 11.4292 4.87307 11.7726 5.20986 12.0435C5.54665 12.3047 6.00038 12.5224 6.57105 12.6966C7.14172 12.8707 7.92756 13.0836 8.92857 13.3351C10.1167 13.635 11.085 13.993 11.8334 14.409C12.5912 14.825 13.1618 15.3184 13.5454 15.8892C13.9383 16.4503 14.1348 17.0937 14.1348 17.8193Z" stroke="#2068E1" mask="url(#path-1-outside-1_224_2171)"/>
<path d="M31.2581 14.9459C31.2581 16.1262 31.0804 17.2146 30.7249 18.2111C30.3694 19.2076 29.8548 20.0638 29.1813 20.7797C28.5077 21.4956 27.7031 22.0471 26.7676 22.434C25.8321 22.8113 24.7796 23 23.6102 23C22.4502 23 21.4071 22.8065 20.4809 22.4195C19.5547 22.0325 18.7502 21.4811 18.0672 20.7652C17.3937 20.0396 16.8791 19.1882 16.5236 18.2111C16.1775 17.2243 16.0044 16.1359 16.0044 14.9459C16.0044 13.7463 16.1821 12.6482 16.5376 11.6517C16.8931 10.6552 17.403 9.80387 18.0672 9.09762C18.7315 8.39138 19.536 7.8496 20.4809 7.4723C21.4258 7.08531 22.4689 6.89182 23.6102 6.89182C24.7703 6.89182 25.8227 7.08531 26.7676 7.4723C27.7125 7.85928 28.5217 8.41073 29.1953 9.12665C29.8689 9.84257 30.3787 10.6939 30.7249 11.6807C31.0804 12.6675 31.2581 13.7559 31.2581 14.9459ZM27.4131 14.9459C27.4131 13.3303 27.067 12.0726 26.3747 11.1728C25.6918 10.2731 24.7703 9.82322 23.6102 9.82322C22.8618 9.82322 22.2023 10.0264 21.6316 10.4327C21.0609 10.8294 20.6212 11.4195 20.3125 12.2032C20.0038 12.9868 19.8494 13.9011 19.8494 14.9459C19.8494 15.9811 19.9991 16.8857 20.2985 17.6596C20.6072 18.4336 21.0422 19.0286 21.6035 19.4446C22.1742 19.8509 22.8431 20.0541 23.6102 20.0541C24.7703 20.0541 25.6918 19.6042 26.3747 18.7045C27.067 17.7951 27.4131 16.5422 27.4131 14.9459Z" stroke="#2068E1" mask="url(#path-1-outside-1_224_2171)"/>
<path d="M42.797 21.186L39.4151 15.4393L37.3382 17.471V20.6201C37.3382 21.3843 37.1417 21.9745 36.7488 22.3905C36.3652 22.7968 35.9209 23 35.4157 23C34.8263 23 34.3632 22.7968 34.0264 22.3905C33.6896 21.9842 33.5212 21.3843 33.5212 20.591V3.69921C33.5212 2.81882 33.685 2.15128 34.0124 1.69657C34.3398 1.23219 34.8076 1 35.4157 1C36.0051 1 36.4728 1.208 36.819 1.62401C37.1651 2.04002 37.3382 2.65435 37.3382 3.46702V13.0739L41.6463 8.40105C42.1795 7.82058 42.5865 7.42392 42.8671 7.21108C43.1478 6.99824 43.4893 6.89182 43.8915 6.89182C44.3687 6.89182 44.7663 7.05145 45.0843 7.37071C45.4024 7.6803 45.5615 8.07212 45.5615 8.54617C45.5615 9.12665 45.0422 9.90062 44.0038 10.8681L41.969 12.7982L45.8982 19.1834C46.1883 19.6574 46.3941 20.0202 46.5157 20.2718C46.6467 20.5136 46.7121 20.7458 46.7121 20.9683C46.7121 21.5972 46.5438 22.0954 46.207 22.4631C45.8795 22.821 45.4445 23 44.9019 23C44.4341 23 44.074 22.8694 43.8214 22.6082C43.5688 22.347 43.2273 21.8729 42.797 21.186Z" stroke="#2068E1" mask="url(#path-1-outside-1_224_2171)"/>
<path d="M58.7764 20.7652V20.2573C58.318 20.8571 57.8362 21.3602 57.331 21.7665C56.8258 22.1728 56.2738 22.4727 55.6751 22.6662C55.0764 22.8694 54.3934 22.971 53.6263 22.971C52.7001 22.971 51.8675 22.7726 51.1285 22.376C50.3988 21.9793 49.8328 21.4327 49.4305 20.7361C48.9534 19.8945 48.7148 18.6851 48.7148 17.1082V9.25726C48.7148 8.46394 48.8879 7.87379 49.234 7.48681C49.5802 7.09015 50.0386 6.89182 50.6092 6.89182C51.1893 6.89182 51.657 7.09015 52.0125 7.48681C52.368 7.88346 52.5458 8.47361 52.5458 9.25726V15.5989C52.5458 16.518 52.6206 17.292 52.7703 17.9208C52.92 18.54 53.1866 19.0286 53.5702 19.3865C53.9631 19.7348 54.4917 19.909 55.1559 19.909C55.8014 19.909 56.4095 19.7106 56.9802 19.314C57.5508 18.9173 57.9671 18.3997 58.2291 17.7612C58.4443 17.2001 58.5518 15.9714 58.5518 14.0752V9.25726C58.5518 8.47361 58.7296 7.88346 59.0851 7.48681C59.4406 7.09015 59.9037 6.89182 60.4744 6.89182C61.045 6.89182 61.5034 7.09015 61.8496 7.48681C62.1957 7.87379 62.3688 8.46394 62.3688 9.25726V20.7361C62.3688 21.4908 62.2004 22.0567 61.8636 22.434C61.5362 22.8113 61.1105 23 60.5866 23C60.0627 23 59.6277 22.8065 59.2816 22.4195C58.9448 22.0229 58.7764 21.4714 58.7764 20.7652Z" stroke="#2068E1" mask="url(#path-1-outside-1_224_2171)"/>
<path d="M69.5428 17.2823V20.591C69.5428 21.394 69.3604 21.9987 68.9956 22.405C68.6307 22.8017 68.1676 23 67.6063 23C67.0543 23 66.6006 22.7968 66.2451 22.3905C65.8896 21.9842 65.7119 21.3843 65.7119 20.591V9.56201C65.7119 7.78188 66.334 6.89182 67.5782 6.89182C68.2144 6.89182 68.6728 7.09982 68.9535 7.51583C69.2341 7.93184 69.3885 8.54617 69.4165 9.35884C69.875 8.54617 70.3427 7.93184 70.8198 7.51583C71.3063 7.09982 71.9518 6.89182 72.7564 6.89182C73.5609 6.89182 74.3421 7.09982 75.0999 7.51583C75.8576 7.93184 76.2365 8.48329 76.2365 9.17018C76.2365 9.65391 76.0728 10.0554 75.7454 10.3747C75.4273 10.6843 75.0812 10.839 74.7069 10.839C74.5666 10.839 74.2252 10.752 73.6825 10.5778C73.1493 10.394 72.6769 10.3021 72.2652 10.3021C71.7039 10.3021 71.2455 10.4569 70.89 10.7665C70.5345 11.0664 70.2585 11.5163 70.0621 12.1161C69.8656 12.7159 69.73 13.4318 69.6551 14.2639C69.5803 15.0862 69.5428 16.0923 69.5428 17.2823Z" stroke="#2068E1" mask="url(#path-1-outside-1_224_2171)"/>
<path d="M82 13.5V20.591C82 21.3843 81.8176 21.9842 81.4527 22.3905C81.0879 22.7968 80.6248 23 80.0635 23C79.5021 23 79.0437 22.792 78.6882 22.376C78.3421 21.96 78.169 21.365 78.169 20.591V13.6161C78.169 12.8325 78.3421 12.2423 78.6882 11.8456C79.0437 11.449 79.5021 11.2507 80.0635 11.2507C80.6248 11.2507 81.0879 11.449 81.4527 11.8456C81.8176 12.2423 82 12.7938 82 13.5ZM80.1056 9.20966C79.5723 9.20966 79.1139 9.04035 78.7303 8.70174C78.3561 8.36313 78.169 7.88424 78.169 7.26507C78.169 6.70394 78.3608 6.2444 78.7444 5.88644C79.1373 5.5188 79.591 5.33499 80.1056 5.33499C80.6014 5.33499 81.0411 5.49945 81.4247 5.82839C81.8082 6.15733 82 6.63622 82 7.26507C82 7.87456 81.8129 8.35346 81.4387 8.70174C81.0645 9.04035 80.6201 9.20966 80.1056 9.20966Z" stroke="#2068E1" mask="url(#path-1-outside-1_224_2171)"/>
</g>
</svg>
