<svg width="24" height="24" viewBox="0 0 24 24" fill="none" xmlns="http://www.w3.org/2000/svg">
<rect width="24" height="24" fill="#F4F4F4"/>
<path d="M-351 -301C-351 -302.105 -350.105 -303 -349 -303H8968C8969.1 -303 8970 -302.105 8970 -301V1858C8970 1859.1 8969.1 1860 8968 1860H-349C-350.104 1860 -351 1859.1 -351 1858V-301Z" fill="#FAFAFA"/>
<path d="M-215 -153C-215 -154.105 -214.105 -155 -213 -155H1163C1164.1 -155 1165 -154.105 1165 -153V1576C1165 1577.1 1164.1 1578 1163 1578H-213C-214.105 1578 -215 1577.1 -215 1576V-153Z" fill="white"/>
<rect x="-51" y="-18" width="375" height="60" fill="white"/>
<rect x="-51" y="-18" width="125" height="76" fill="white"/>
<path fill-rule="evenodd" clip-rule="evenodd" d="M12 14C14.2091 14 16 12.2091 16 10C16 7.79086 14.2091 6 12 6C9.79086 6 8 7.79086 8 10C8 12.2091 9.79086 14 12 14ZM12 12C13.1046 12 14 11.1046 14 10C14 8.89543 13.1046 8 12 8C10.8954 8 10 8.89543 10 10C10 11.1046 10.8954 12 12 12Z" fill="#707070"/>
<path fill-rule="evenodd" clip-rule="evenodd" d="M21 10C21 14.963 15.7052 20.549 13.238 22.8825C12.5344 23.5479 11.4656 23.5479 10.762 22.8825C8.29483 20.549 3 14.963 3 10C3 5.02944 7.02944 1 12 1C16.9706 1 21 5.02944 21 10ZM19 10C19 11.8435 17.9793 14.0547 16.4111 16.2728C14.9434 18.3488 13.1877 20.1658 12 21.2999C10.8123 20.1658 9.05661 18.3488 7.58891 16.2728C6.02075 14.0547 5 11.8435 5 10C5 6.13401 8.13401 3 12 3C15.866 3 19 6.13401 19 10Z" fill="#707070"/>
<path d="M-213 -154H1163V-156H-213V-154ZM1164 -153V1576H1166V-153H1164ZM1163 1577H-213V1579H1163V1577ZM-214 1576V-153H-216V1576H-214ZM-213 1577C-213.552 1577 -214 1576.55 -214 1576H-216C-216 1577.66 -214.657 1579 -213 1579V1577ZM1164 1576C1164 1576.55 1163.55 1577 1163 1577V1579C1164.66 1579 1166 1577.66 1166 1576H1164ZM1163 -154C1163.55 -154 1164 -153.552 1164 -153H1166C1166 -154.657 1164.66 -156 1163 -156V-154ZM-213 -156C-214.657 -156 -216 -154.657 -216 -153H-214C-214 -153.552 -213.552 -154 -213 -154V-156Z" fill="black" fill-opacity="0.1"/>
<path d="M-349 -302H8968V-304H-349V-302ZM8969 -301V1858H8971V-301H8969ZM8968 1859H-349V1861H8968V1859ZM-350 1858V-301H-352V1858H-350ZM-349 1859C-349.552 1859 -350 1858.55 -350 1858H-352C-352 1859.66 -350.657 1861 -349 1861V1859ZM8969 1858C8969 1858.55 8968.55 1859 8968 1859V1861C8969.66 1861 8971 1859.66 8971 1858H8969ZM8968 -302C8968.55 -302 8969 -301.552 8969 -301H8971C8971 -302.657 8969.66 -304 8968 -304V-302ZM-349 -304C-350.657 -304 -352 -302.657 -352 -301H-350C-350 -301.552 -349.552 -302 -349 -302V-304Z" fill="black" fill-opacity="0.1"/>
</svg>
