<svg width="24" height="24" viewBox="0 0 24 24" fill="none" xmlns="http://www.w3.org/2000/svg">
<g id="user">
<path id="Vector" fill-rule="evenodd" clip-rule="evenodd" d="M16 7C16 9.20914 14.2091 11 12 11C9.79086 11 8 9.20914 8 7C8 4.79086 9.79086 3 12 3C14.2091 3 16 4.79086 16 7ZM14 7C14 8.10457 13.1046 9 12 9C10.8954 9 10 8.10457 10 7C10 5.89543 10.8954 5 12 5C13.1046 5 14 5.89543 14 7Z" fill="#2068E1"/>
<path id="Ellipse 135" d="M12 13C15.0614 13 17.5831 14.735 18.546 17.7997C18.6575 18.1547 18.7619 18.635 18.843 19.1612C18.9034 19.5535 18.5901 20 18 20H6C5.40985 20 5.0966 19.5535 5.15705 19.1612C5.23812 18.635 5.34251 18.1547 5.45402 17.7997C6.4169 14.735 8.93864 13 12 13Z" stroke="#2068E1" stroke-width="2"/>
</g>
</svg>
