<svg width="78" height="20" viewBox="0 0 78 20" fill="none" xmlns="http://www.w3.org/2000/svg">
<g id="Vector">
<mask id="path-1-inside-1_565_1313" fill="white">
<path d="M11.0365 13.367V13.71C11.0365 14.8944 10.5958 16.0787 9.74466 16.9825C8.64024 18.1668 7.03176 18.8228 5.17249 18.8228C3.09032 18.8228 1.19813 17.7938 0.253305 16.1738C0.096256 15.8934 0 15.5503 0 15.2399C0 14.6164 0.314099 14.023 0.914432 13.68C1.19813 13.5248 1.51477 13.4296 1.82886 13.4296C2.45959 13.4296 3.09032 13.7726 3.43735 14.366C3.78438 14.9594 4.57216 15.1773 5.17249 15.1773C5.9932 15.1773 6.65433 14.9594 7.03176 14.5238C7.28506 14.2734 7.37878 13.993 7.37878 13.6825C7.22173 13.3094 5.86655 12.6534 4.79254 12.4056C4.76214 12.4056 4.69881 12.4056 4.66588 12.3755C2.80662 11.8447 0.567404 10.6304 0.567404 7.85614C0.567404 5.42494 2.83702 3.61719 5.86655 3.61719C6.87471 3.61719 7.97912 3.92766 8.83022 4.45847C9.39763 4.80149 9.71426 5.39239 9.71426 6.01584C9.71426 6.35886 9.62054 6.66933 9.43056 6.98231C9.08353 7.51312 8.51612 7.82359 7.88539 7.82359C7.53837 7.82359 7.19134 7.73095 6.87724 7.54316C6.59354 7.35538 6.18318 7.26274 5.86908 7.26274C4.73428 7.26274 4.2606 7.73095 4.2606 7.85614C4.2606 8.07397 4.2606 8.47959 5.64871 8.8852C5.93241 8.9478 6.91017 9.19818 7.91832 9.66389C10.3475 10.8181 10.9453 12.3129 11.0416 13.372L11.0365 13.367Z"/>
<path d="M26.524 11.5592C26.524 15.5503 23.2133 18.8228 19.1453 18.8228C15.0772 18.8228 11.7969 15.5503 11.7969 11.5592C11.7969 7.56815 15.1076 4.26562 19.1453 4.26562C23.1829 4.26562 26.524 7.53811 26.524 11.5592ZM22.8334 11.5592C22.8334 9.53364 21.1945 7.91117 19.1427 7.91117C17.091 7.91117 15.485 9.53114 15.485 11.5592C15.485 13.5873 17.1239 15.1747 19.1427 15.1747C21.1616 15.1747 22.8334 13.5548 22.8334 11.5592Z"/>
<path d="M39.4661 15.7035C39.8764 16.1091 40.0031 16.5447 40.0031 17.013C40.0031 17.4812 39.8131 17.9469 39.4661 18.2899C39.1191 18.6329 38.6454 18.8207 38.1742 18.8207C37.7031 18.8207 37.2294 18.6329 36.8824 18.2899L31.7428 13.2097V17.013C31.7428 18.0095 30.8917 18.8207 29.8836 18.8207C28.8754 18.8207 28.0547 18.0095 28.0547 17.013V1.80775C28.0547 0.811234 28.8754 0 29.8836 0C30.8917 0 31.7428 0.811234 31.7428 1.80775V9.87459L36.8824 4.79436C37.2294 4.45134 37.7031 4.2961 38.1742 4.2961C38.6454 4.2961 39.0887 4.45134 39.4661 4.79436C39.8131 5.16743 40.0031 5.63564 40.0031 6.10385C40.0031 6.57207 39.8131 7.04028 39.4661 7.3808L35.241 11.5572L39.4661 15.7035Z"/>
<path d="M72.6609 6.10342C72.6609 7.09994 71.8402 7.91117 70.832 7.91117C70.2317 7.91117 68.4439 8.00381 68.1298 8.47203C68.0361 8.62726 68.0032 8.81505 68.0032 8.81505V17.0125C68.0032 18.009 67.1824 18.8203 66.1414 18.8203C65.1003 18.8203 64.3125 18.009 64.3125 17.0125V6.10342C64.3125 5.07436 65.1332 4.26562 66.1414 4.26562C66.615 4.26562 67.0254 4.42086 67.3395 4.70129C68.0336 4.42086 69.8543 4.26562 70.8295 4.26562C71.8047 4.26562 72.6584 5.07686 72.6584 6.10342H72.6609Z"/>
<path d="M76.0115 4.58305C75.0034 4.58305 74.1826 3.77181 74.1826 2.74525C74.1826 1.71869 75.0034 0.9375 76.0115 0.9375C77.0197 0.9375 77.8733 1.74873 77.8733 2.74525C77.8733 3.74177 77.0222 4.58305 76.0115 4.58305ZM74.1826 17.014L74.1797 7.2128C74.1797 6.21628 75.0004 5.375 76.0086 5.375C77.0167 5.375 77.8703 6.21628 77.8703 7.2128L77.8733 17.014C77.8733 18.0105 77.0222 18.8218 76.0115 18.8218C75.0008 18.8218 74.1826 18.0105 74.1826 17.014Z"/>
<path d="M41.4375 8.66876C41.4375 8.3658 41.4375 8.06535 41.4375 7.76238V6.59811C41.4375 5.56905 42.2582 4.76032 43.2664 4.76032C44.2745 4.76032 45.1282 5.57155 45.1282 6.59811V7.94767C45.1282 8.71133 45.1155 9.46998 45.2548 10.2236C45.3764 10.8796 45.5841 11.5231 45.8754 12.124C46.1667 12.7249 46.5163 13.2532 46.9418 13.744C47.3674 14.2347 47.8411 14.6479 48.3755 15.0009C48.91 15.3539 49.4875 15.6269 50.0955 15.8121C50.7034 15.9974 51.3595 16.0976 52.0054 16.0976C52.4993 16.0976 52.9933 16.0425 53.4771 15.9323C53.9609 15.8222 54.4093 15.6644 54.845 15.4591C55.2806 15.2538 55.6885 15.0009 56.0709 14.7105C56.4534 14.42 56.8055 14.0845 57.1196 13.7215C57.4337 13.3584 57.72 12.9528 57.9581 12.5271C58.1962 12.1015 58.4014 11.6358 58.5533 11.1626C58.7053 10.6893 58.8168 10.1711 58.87 9.66278C58.9257 9.14449 58.946 8.62119 58.946 8.1004V6.59561C58.946 5.56654 59.7667 4.75781 60.7748 4.75781C61.783 4.75781 62.6037 5.56905 62.6037 6.59561V7.36678C62.6037 7.74486 62.6037 8.12293 62.6037 8.50351C62.6037 9.06687 62.591 9.62772 62.5226 10.1886C62.4618 10.6918 62.3656 11.1926 62.2364 11.6834C62.1072 12.1741 61.9502 12.6373 61.7602 13.098C61.5702 13.5587 61.3549 13.9919 61.1067 14.4175C60.8584 14.8432 60.5899 15.2413 60.2935 15.6269C59.9972 16.0124 59.678 16.3705 59.3335 16.711C58.989 17.0515 58.6268 17.3645 58.2418 17.6524C57.8568 17.9404 57.454 18.2058 57.0335 18.4386C56.613 18.6715 56.1723 18.8793 55.7214 19.0546C55.2705 19.2298 54.7994 19.3751 54.3231 19.4852C53.8469 19.5954 53.3479 19.673 52.8514 19.7131C52.5703 19.7356 52.2891 19.7481 52.0105 19.7481C51.3468 19.7481 50.6831 19.683 50.0296 19.5553C49.3761 19.4276 48.7656 19.2449 48.1628 18.9995C47.5599 18.7541 46.995 18.4612 46.4555 18.1156C45.9159 17.7701 45.4093 17.377 44.9407 16.9414C44.4721 16.5057 44.0389 16.025 43.6539 15.5117C43.2689 14.9984 42.9219 14.44 42.6306 13.8617C42.3393 13.2833 42.091 12.6573 41.9036 12.0264C41.7161 11.3954 41.5794 10.7144 41.5084 10.0434C41.4603 9.58516 41.4451 9.12696 41.4426 8.66626L41.4375 8.66876Z"/>
</mask>
<path d="M11.0365 13.367V13.71C11.0365 14.8944 10.5958 16.0787 9.74466 16.9825C8.64024 18.1668 7.03176 18.8228 5.17249 18.8228C3.09032 18.8228 1.19813 17.7938 0.253305 16.1738C0.096256 15.8934 0 15.5503 0 15.2399C0 14.6164 0.314099 14.023 0.914432 13.68C1.19813 13.5248 1.51477 13.4296 1.82886 13.4296C2.45959 13.4296 3.09032 13.7726 3.43735 14.366C3.78438 14.9594 4.57216 15.1773 5.17249 15.1773C5.9932 15.1773 6.65433 14.9594 7.03176 14.5238C7.28506 14.2734 7.37878 13.993 7.37878 13.6825C7.22173 13.3094 5.86655 12.6534 4.79254 12.4056C4.76214 12.4056 4.69881 12.4056 4.66588 12.3755C2.80662 11.8447 0.567404 10.6304 0.567404 7.85614C0.567404 5.42494 2.83702 3.61719 5.86655 3.61719C6.87471 3.61719 7.97912 3.92766 8.83022 4.45847C9.39763 4.80149 9.71426 5.39239 9.71426 6.01584C9.71426 6.35886 9.62054 6.66933 9.43056 6.98231C9.08353 7.51312 8.51612 7.82359 7.88539 7.82359C7.53837 7.82359 7.19134 7.73095 6.87724 7.54316C6.59354 7.35538 6.18318 7.26274 5.86908 7.26274C4.73428 7.26274 4.2606 7.73095 4.2606 7.85614C4.2606 8.07397 4.2606 8.47959 5.64871 8.8852C5.93241 8.9478 6.91017 9.19818 7.91832 9.66389C10.3475 10.8181 10.9453 12.3129 11.0416 13.372L11.0365 13.367Z" fill="#1A1A1A"/>
<path d="M26.524 11.5592C26.524 15.5503 23.2133 18.8228 19.1453 18.8228C15.0772 18.8228 11.7969 15.5503 11.7969 11.5592C11.7969 7.56815 15.1076 4.26562 19.1453 4.26562C23.1829 4.26562 26.524 7.53811 26.524 11.5592ZM22.8334 11.5592C22.8334 9.53364 21.1945 7.91117 19.1427 7.91117C17.091 7.91117 15.485 9.53114 15.485 11.5592C15.485 13.5873 17.1239 15.1747 19.1427 15.1747C21.1616 15.1747 22.8334 13.5548 22.8334 11.5592Z" fill="#1A1A1A"/>
<path d="M39.4661 15.7035C39.8764 16.1091 40.0031 16.5447 40.0031 17.013C40.0031 17.4812 39.8131 17.9469 39.4661 18.2899C39.1191 18.6329 38.6454 18.8207 38.1742 18.8207C37.7031 18.8207 37.2294 18.6329 36.8824 18.2899L31.7428 13.2097V17.013C31.7428 18.0095 30.8917 18.8207 29.8836 18.8207C28.8754 18.8207 28.0547 18.0095 28.0547 17.013V1.80775C28.0547 0.811234 28.8754 0 29.8836 0C30.8917 0 31.7428 0.811234 31.7428 1.80775V9.87459L36.8824 4.79436C37.2294 4.45134 37.7031 4.2961 38.1742 4.2961C38.6454 4.2961 39.0887 4.45134 39.4661 4.79436C39.8131 5.16743 40.0031 5.63564 40.0031 6.10385C40.0031 6.57207 39.8131 7.04028 39.4661 7.3808L35.241 11.5572L39.4661 15.7035Z" fill="#1A1A1A"/>
<path d="M72.6609 6.10342C72.6609 7.09994 71.8402 7.91117 70.832 7.91117C70.2317 7.91117 68.4439 8.00381 68.1298 8.47203C68.0361 8.62726 68.0032 8.81505 68.0032 8.81505V17.0125C68.0032 18.009 67.1824 18.8203 66.1414 18.8203C65.1003 18.8203 64.3125 18.009 64.3125 17.0125V6.10342C64.3125 5.07436 65.1332 4.26562 66.1414 4.26562C66.615 4.26562 67.0254 4.42086 67.3395 4.70129C68.0336 4.42086 69.8543 4.26562 70.8295 4.26562C71.8047 4.26562 72.6584 5.07686 72.6584 6.10342H72.6609Z" fill="#1A1A1A"/>
<path d="M76.0115 4.58305C75.0034 4.58305 74.1826 3.77181 74.1826 2.74525C74.1826 1.71869 75.0034 0.9375 76.0115 0.9375C77.0197 0.9375 77.8733 1.74873 77.8733 2.74525C77.8733 3.74177 77.0222 4.58305 76.0115 4.58305ZM74.1826 17.014L74.1797 7.2128C74.1797 6.21628 75.0004 5.375 76.0086 5.375C77.0167 5.375 77.8703 6.21628 77.8703 7.2128L77.8733 17.014C77.8733 18.0105 77.0222 18.8218 76.0115 18.8218C75.0008 18.8218 74.1826 18.0105 74.1826 17.014Z" fill="#1A1A1A"/>
<path d="M41.4375 8.66876C41.4375 8.3658 41.4375 8.06535 41.4375 7.76238V6.59811C41.4375 5.56905 42.2582 4.76032 43.2664 4.76032C44.2745 4.76032 45.1282 5.57155 45.1282 6.59811V7.94767C45.1282 8.71133 45.1155 9.46998 45.2548 10.2236C45.3764 10.8796 45.5841 11.5231 45.8754 12.124C46.1667 12.7249 46.5163 13.2532 46.9418 13.744C47.3674 14.2347 47.8411 14.6479 48.3755 15.0009C48.91 15.3539 49.4875 15.6269 50.0955 15.8121C50.7034 15.9974 51.3595 16.0976 52.0054 16.0976C52.4993 16.0976 52.9933 16.0425 53.4771 15.9323C53.9609 15.8222 54.4093 15.6644 54.845 15.4591C55.2806 15.2538 55.6885 15.0009 56.0709 14.7105C56.4534 14.42 56.8055 14.0845 57.1196 13.7215C57.4337 13.3584 57.72 12.9528 57.9581 12.5271C58.1962 12.1015 58.4014 11.6358 58.5533 11.1626C58.7053 10.6893 58.8168 10.1711 58.87 9.66278C58.9257 9.14449 58.946 8.62119 58.946 8.1004V6.59561C58.946 5.56654 59.7667 4.75781 60.7748 4.75781C61.783 4.75781 62.6037 5.56905 62.6037 6.59561V7.36678C62.6037 7.74486 62.6037 8.12293 62.6037 8.50351C62.6037 9.06687 62.591 9.62772 62.5226 10.1886C62.4618 10.6918 62.3656 11.1926 62.2364 11.6834C62.1072 12.1741 61.9502 12.6373 61.7602 13.098C61.5702 13.5587 61.3549 13.9919 61.1067 14.4175C60.8584 14.8432 60.5899 15.2413 60.2935 15.6269C59.9972 16.0124 59.678 16.3705 59.3335 16.711C58.989 17.0515 58.6268 17.3645 58.2418 17.6524C57.8568 17.9404 57.454 18.2058 57.0335 18.4386C56.613 18.6715 56.1723 18.8793 55.7214 19.0546C55.2705 19.2298 54.7994 19.3751 54.3231 19.4852C53.8469 19.5954 53.3479 19.673 52.8514 19.7131C52.5703 19.7356 52.2891 19.7481 52.0105 19.7481C51.3468 19.7481 50.6831 19.683 50.0296 19.5553C49.3761 19.4276 48.7656 19.2449 48.1628 18.9995C47.5599 18.7541 46.995 18.4612 46.4555 18.1156C45.9159 17.7701 45.4093 17.377 44.9407 16.9414C44.4721 16.5057 44.0389 16.025 43.6539 15.5117C43.2689 14.9984 42.9219 14.44 42.6306 13.8617C42.3393 13.2833 42.091 12.6573 41.9036 12.0264C41.7161 11.3954 41.5794 10.7144 41.5084 10.0434C41.4603 9.58516 41.4451 9.12696 41.4426 8.66626L41.4375 8.66876Z" fill="#2068E1"/>
<path d="M11.0365 13.367V13.71C11.0365 14.8944 10.5958 16.0787 9.74466 16.9825C8.64024 18.1668 7.03176 18.8228 5.17249 18.8228C3.09032 18.8228 1.19813 17.7938 0.253305 16.1738C0.096256 15.8934 0 15.5503 0 15.2399C0 14.6164 0.314099 14.023 0.914432 13.68C1.19813 13.5248 1.51477 13.4296 1.82886 13.4296C2.45959 13.4296 3.09032 13.7726 3.43735 14.366C3.78438 14.9594 4.57216 15.1773 5.17249 15.1773C5.9932 15.1773 6.65433 14.9594 7.03176 14.5238C7.28506 14.2734 7.37878 13.993 7.37878 13.6825C7.22173 13.3094 5.86655 12.6534 4.79254 12.4056C4.76214 12.4056 4.69881 12.4056 4.66588 12.3755C2.80662 11.8447 0.567404 10.6304 0.567404 7.85614C0.567404 5.42494 2.83702 3.61719 5.86655 3.61719C6.87471 3.61719 7.97912 3.92766 8.83022 4.45847C9.39763 4.80149 9.71426 5.39239 9.71426 6.01584C9.71426 6.35886 9.62054 6.66933 9.43056 6.98231C9.08353 7.51312 8.51612 7.82359 7.88539 7.82359C7.53837 7.82359 7.19134 7.73095 6.87724 7.54316C6.59354 7.35538 6.18318 7.26274 5.86908 7.26274C4.73428 7.26274 4.2606 7.73095 4.2606 7.85614C4.2606 8.07397 4.2606 8.47959 5.64871 8.8852C5.93241 8.9478 6.91017 9.19818 7.91832 9.66389C10.3475 10.8181 10.9453 12.3129 11.0416 13.372L11.0365 13.367Z" stroke="white" stroke-width="0.4" stroke-miterlimit="10" mask="url(#path-1-inside-1_565_1313)"/>
<path d="M26.524 11.5592C26.524 15.5503 23.2133 18.8228 19.1453 18.8228C15.0772 18.8228 11.7969 15.5503 11.7969 11.5592C11.7969 7.56815 15.1076 4.26562 19.1453 4.26562C23.1829 4.26562 26.524 7.53811 26.524 11.5592ZM22.8334 11.5592C22.8334 9.53364 21.1945 7.91117 19.1427 7.91117C17.091 7.91117 15.485 9.53114 15.485 11.5592C15.485 13.5873 17.1239 15.1747 19.1427 15.1747C21.1616 15.1747 22.8334 13.5548 22.8334 11.5592Z" stroke="white" stroke-width="0.4" stroke-miterlimit="10" mask="url(#path-1-inside-1_565_1313)"/>
<path d="M39.4661 15.7035C39.8764 16.1091 40.0031 16.5447 40.0031 17.013C40.0031 17.4812 39.8131 17.9469 39.4661 18.2899C39.1191 18.6329 38.6454 18.8207 38.1742 18.8207C37.7031 18.8207 37.2294 18.6329 36.8824 18.2899L31.7428 13.2097V17.013C31.7428 18.0095 30.8917 18.8207 29.8836 18.8207C28.8754 18.8207 28.0547 18.0095 28.0547 17.013V1.80775C28.0547 0.811234 28.8754 0 29.8836 0C30.8917 0 31.7428 0.811234 31.7428 1.80775V9.87459L36.8824 4.79436C37.2294 4.45134 37.7031 4.2961 38.1742 4.2961C38.6454 4.2961 39.0887 4.45134 39.4661 4.79436C39.8131 5.16743 40.0031 5.63564 40.0031 6.10385C40.0031 6.57207 39.8131 7.04028 39.4661 7.3808L35.241 11.5572L39.4661 15.7035Z" stroke="white" stroke-width="0.4" stroke-miterlimit="10" mask="url(#path-1-inside-1_565_1313)"/>
<path d="M72.6609 6.10342C72.6609 7.09994 71.8402 7.91117 70.832 7.91117C70.2317 7.91117 68.4439 8.00381 68.1298 8.47203C68.0361 8.62726 68.0032 8.81505 68.0032 8.81505V17.0125C68.0032 18.009 67.1824 18.8203 66.1414 18.8203C65.1003 18.8203 64.3125 18.009 64.3125 17.0125V6.10342C64.3125 5.07436 65.1332 4.26562 66.1414 4.26562C66.615 4.26562 67.0254 4.42086 67.3395 4.70129C68.0336 4.42086 69.8543 4.26562 70.8295 4.26562C71.8047 4.26562 72.6584 5.07686 72.6584 6.10342H72.6609Z" stroke="white" stroke-width="0.4" stroke-miterlimit="10" mask="url(#path-1-inside-1_565_1313)"/>
<path d="M76.0115 4.58305C75.0034 4.58305 74.1826 3.77181 74.1826 2.74525C74.1826 1.71869 75.0034 0.9375 76.0115 0.9375C77.0197 0.9375 77.8733 1.74873 77.8733 2.74525C77.8733 3.74177 77.0222 4.58305 76.0115 4.58305ZM74.1826 17.014L74.1797 7.2128C74.1797 6.21628 75.0004 5.375 76.0086 5.375C77.0167 5.375 77.8703 6.21628 77.8703 7.2128L77.8733 17.014C77.8733 18.0105 77.0222 18.8218 76.0115 18.8218C75.0008 18.8218 74.1826 18.0105 74.1826 17.014Z" stroke="white" stroke-width="0.4" stroke-miterlimit="10" mask="url(#path-1-inside-1_565_1313)"/>
<path d="M41.4375 8.66876C41.4375 8.3658 41.4375 8.06535 41.4375 7.76238V6.59811C41.4375 5.56905 42.2582 4.76032 43.2664 4.76032C44.2745 4.76032 45.1282 5.57155 45.1282 6.59811V7.94767C45.1282 8.71133 45.1155 9.46998 45.2548 10.2236C45.3764 10.8796 45.5841 11.5231 45.8754 12.124C46.1667 12.7249 46.5163 13.2532 46.9418 13.744C47.3674 14.2347 47.8411 14.6479 48.3755 15.0009C48.91 15.3539 49.4875 15.6269 50.0955 15.8121C50.7034 15.9974 51.3595 16.0976 52.0054 16.0976C52.4993 16.0976 52.9933 16.0425 53.4771 15.9323C53.9609 15.8222 54.4093 15.6644 54.845 15.4591C55.2806 15.2538 55.6885 15.0009 56.0709 14.7105C56.4534 14.42 56.8055 14.0845 57.1196 13.7215C57.4337 13.3584 57.72 12.9528 57.9581 12.5271C58.1962 12.1015 58.4014 11.6358 58.5533 11.1626C58.7053 10.6893 58.8168 10.1711 58.87 9.66278C58.9257 9.14449 58.946 8.62119 58.946 8.1004V6.59561C58.946 5.56654 59.7667 4.75781 60.7748 4.75781C61.783 4.75781 62.6037 5.56905 62.6037 6.59561V7.36678C62.6037 7.74486 62.6037 8.12293 62.6037 8.50351C62.6037 9.06687 62.591 9.62772 62.5226 10.1886C62.4618 10.6918 62.3656 11.1926 62.2364 11.6834C62.1072 12.1741 61.9502 12.6373 61.7602 13.098C61.5702 13.5587 61.3549 13.9919 61.1067 14.4175C60.8584 14.8432 60.5899 15.2413 60.2935 15.6269C59.9972 16.0124 59.678 16.3705 59.3335 16.711C58.989 17.0515 58.6268 17.3645 58.2418 17.6524C57.8568 17.9404 57.454 18.2058 57.0335 18.4386C56.613 18.6715 56.1723 18.8793 55.7214 19.0546C55.2705 19.2298 54.7994 19.3751 54.3231 19.4852C53.8469 19.5954 53.3479 19.673 52.8514 19.7131C52.5703 19.7356 52.2891 19.7481 52.0105 19.7481C51.3468 19.7481 50.6831 19.683 50.0296 19.5553C49.3761 19.4276 48.7656 19.2449 48.1628 18.9995C47.5599 18.7541 46.995 18.4612 46.4555 18.1156C45.9159 17.7701 45.4093 17.377 44.9407 16.9414C44.4721 16.5057 44.0389 16.025 43.6539 15.5117C43.2689 14.9984 42.9219 14.44 42.6306 13.8617C42.3393 13.2833 42.091 12.6573 41.9036 12.0264C41.7161 11.3954 41.5794 10.7144 41.5084 10.0434C41.4603 9.58516 41.4451 9.12696 41.4426 8.66626L41.4375 8.66876Z" stroke="white" stroke-width="0.4" stroke-miterlimit="10" mask="url(#path-1-inside-1_565_1313)"/>
</g>
</svg>
