<svg width="24" height="24" viewBox="0 0 24 24" fill="none" xmlns="http://www.w3.org/2000/svg">
<g id="trash">
<g id="Group 2089">
<g id="Group 2088">
<g id="Group 2087">
<g id="Ellipse 131" filter="url(#filter0_d_198_1371)">
<circle cx="14.6484" cy="13.25" r="1.25" fill="#2068E1"/>
</g>
<g id="Ellipse 132" filter="url(#filter1_d_198_1371)">
<circle cx="9.25" cy="13.25" r="1.25" fill="#2068E1"/>
</g>
</g>
<path id="Ellipse 133" d="M14.5 17C14 17.5 13 18 12 18C11 18 10 17.5 9.5 17" stroke="#2068E1" stroke-width="1.8" stroke-linecap="round"/>
</g>
<path id="Vector 4" d="M6.5 8.8983C7.99986 7.39844 9.5 6.39844 12 4.50014C14.5 6.39844 16 7.3983 17.5 8.8983C19 10.3983 20 12.3983 20 14.8983C20 19.3166 16.4183 22.3983 12 22.3983C7.58172 22.3983 4 19.3166 4 14.8983C4 13.3983 4.5 10.8983 6.5 8.8983Z" stroke="#2068E1" stroke-width="2" stroke-linecap="round"/>
<path id="Vector 5" d="M12 4.5L15.5 2" stroke="#2068E1" stroke-width="2" stroke-linecap="round"/>
<path id="Vector 6" d="M8.5 2L12 4.5" stroke="#2068E1" stroke-width="2" stroke-linecap="round"/>
</g>
</g>
<defs>
<filter id="filter0_d_198_1371" x="9.39844" y="12" width="10.5" height="10.5" filterUnits="userSpaceOnUse" color-interpolation-filters="sRGB">
<feFlood flood-opacity="0" result="BackgroundImageFix"/>
<feColorMatrix in="SourceAlpha" type="matrix" values="0 0 0 0 0 0 0 0 0 0 0 0 0 0 0 0 0 0 127 0" result="hardAlpha"/>
<feOffset dy="4"/>
<feGaussianBlur stdDeviation="2"/>
<feComposite in2="hardAlpha" operator="out"/>
<feColorMatrix type="matrix" values="0 0 0 0 0 0 0 0 0 0 0 0 0 0 0 0 0 0 0.25 0"/>
<feBlend mode="normal" in2="BackgroundImageFix" result="effect1_dropShadow_198_1371"/>
<feBlend mode="normal" in="SourceGraphic" in2="effect1_dropShadow_198_1371" result="shape"/>
</filter>
<filter id="filter1_d_198_1371" x="4" y="12" width="10.5" height="10.5" filterUnits="userSpaceOnUse" color-interpolation-filters="sRGB">
<feFlood flood-opacity="0" result="BackgroundImageFix"/>
<feColorMatrix in="SourceAlpha" type="matrix" values="0 0 0 0 0 0 0 0 0 0 0 0 0 0 0 0 0 0 127 0" result="hardAlpha"/>
<feOffset dy="4"/>
<feGaussianBlur stdDeviation="2"/>
<feComposite in2="hardAlpha" operator="out"/>
<feColorMatrix type="matrix" values="0 0 0 0 0 0 0 0 0 0 0 0 0 0 0 0 0 0 0.25 0"/>
<feBlend mode="normal" in2="BackgroundImageFix" result="effect1_dropShadow_198_1371"/>
<feBlend mode="normal" in="SourceGraphic" in2="effect1_dropShadow_198_1371" result="shape"/>
</filter>
</defs>
</svg>
