<svg width="24" height="24" viewBox="0 0 24 24" fill="none" xmlns="http://www.w3.org/2000/svg">
<rect width="24" height="24" fill="#F4F4F4"/>
<path d="M-601 -301C-601 -302.105 -600.105 -303 -599 -303H8718C8719.1 -303 8720 -302.105 8720 -301V1858C8720 1859.1 8719.1 1860 8718 1860H-599C-600.104 1860 -601 1859.1 -601 1858V-301Z" fill="#FAFAFA"/>
<path d="M-465 -153C-465 -154.105 -464.105 -155 -463 -155H913C914.105 -155 915 -154.105 915 -153V1576C915 1577.1 914.105 1578 913 1578H-463C-464.105 1578 -465 1577.1 -465 1576V-153Z" fill="white"/>
<rect x="-301" y="-18" width="375" height="60" fill="white"/>
<rect x="-51" y="-18" width="125" height="76" fill="white"/>
<path fill-rule="evenodd" clip-rule="evenodd" d="M16 7C16 9.20914 14.2091 11 12 11C9.79086 11 8 9.20914 8 7C8 4.79086 9.79086 3 12 3C14.2091 3 16 4.79086 16 7ZM14 7C14 8.10457 13.1046 9 12 9C10.8954 9 10 8.10457 10 7C10 5.89543 10.8954 5 12 5C13.1046 5 14 5.89543 14 7Z" fill="#707070"/>
<path d="M18.843 19.1612C18.9034 19.5535 18.5901 20 18 20H6C5.40985 20 5.0966 19.5535 5.15705 19.1612C5.23812 18.635 5.34251 18.1547 5.45402 17.7997C6.4169 14.735 8.93864 13 12 13C15.0614 13 17.5831 14.735 18.546 17.7997C18.6575 18.1547 18.7619 18.635 18.843 19.1612Z" stroke="#707070" stroke-width="2"/>
<path d="M-463 -154H913V-156H-463V-154ZM914 -153V1576H916V-153H914ZM913 1577H-463V1579H913V1577ZM-464 1576V-153H-466V1576H-464ZM-463 1577C-463.552 1577 -464 1576.55 -464 1576H-466C-466 1577.66 -464.657 1579 -463 1579V1577ZM914 1576C914 1576.55 913.552 1577 913 1577V1579C914.657 1579 916 1577.66 916 1576H914ZM913 -154C913.552 -154 914 -153.552 914 -153H916C916 -154.657 914.657 -156 913 -156V-154ZM-463 -156C-464.657 -156 -466 -154.657 -466 -153H-464C-464 -153.552 -463.552 -154 -463 -154V-156Z" fill="black" fill-opacity="0.1"/>
<path d="M-599 -302H8718V-304H-599V-302ZM8719 -301V1858H8721V-301H8719ZM8718 1859H-599V1861H8718V1859ZM-600 1858V-301H-602V1858H-600ZM-599 1859C-599.552 1859 -600 1858.55 -600 1858H-602C-602 1859.66 -600.657 1861 -599 1861V1859ZM8719 1858C8719 1858.55 8718.55 1859 8718 1859V1861C8719.66 1861 8721 1859.66 8721 1858H8719ZM8718 -302C8718.55 -302 8719 -301.552 8719 -301H8721C8721 -302.657 8719.66 -304 8718 -304V-302ZM-599 -304C-600.657 -304 -602 -302.657 -602 -301H-600C-600 -301.552 -599.552 -302 -599 -302V-304Z" fill="black" fill-opacity="0.1"/>
</svg>
